<?xml version="1.0" encoding="utf-8" standalone="no"?>
<!DOCTYPE svg PUBLIC "-//W3C//DTD SVG 1.1//EN"
  "http://www.w3.org/Graphics/SVG/1.1/DTD/svg11.dtd">
<svg xmlns:xlink="http://www.w3.org/1999/xlink" width="434.244375pt" height="314.7395pt" viewBox="0 0 434.244375 314.7395" xmlns="http://www.w3.org/2000/svg" version="1.1">
 <metadata>
  <rdf:RDF xmlns:dc="http://purl.org/dc/elements/1.1/" xmlns:cc="http://creativecommons.org/ns#" xmlns:rdf="http://www.w3.org/1999/02/22-rdf-syntax-ns#">
   <cc:Work>
    <dc:type rdf:resource="http://purl.org/dc/dcmitype/StillImage"/>
    <dc:date>2025-07-31T22:00:05.019859</dc:date>
    <dc:format>image/svg+xml</dc:format>
    <dc:creator>
     <cc:Agent>
      <dc:title>Matplotlib v3.10.3, https://matplotlib.org/</dc:title>
     </cc:Agent>
    </dc:creator>
   </cc:Work>
  </rdf:RDF>
 </metadata>
 <defs>
  <style type="text/css">*{stroke-linejoin: round; stroke-linecap: butt}</style>
 </defs>
 <g id="figure_1">
  <g id="patch_1">
   <path d="M 0 314.7395 
L 434.244375 314.7395 
L 434.244375 0 
L 0 0 
z
" style="fill: #ffffff"/>
  </g>
  <g id="axes_1">
   <g id="patch_2">
    <path d="M 63.561875 273.312 
L 420.681875 273.312 
L 420.681875 7.2 
L 63.561875 7.2 
z
" style="fill: #ffffff"/>
   </g>
   <g id="patch_3">
    <path d="M 66.537875 273.312 
L 72.489875 273.312 
L 72.489875 214.542864 
L 66.537875 214.542864 
z
" clip-path="url(#p9d32f8c835)" style="fill: #0173b2; fill-opacity: 0.75; stroke: #000000; stroke-width: 0.186583; stroke-linejoin: miter"/>
   </g>
   <g id="patch_4">
    <path d="M 72.489875 273.312 
L 78.441875 273.312 
L 78.441875 19.872 
L 72.489875 19.872 
z
" clip-path="url(#p9d32f8c835)" style="fill: #0173b2; fill-opacity: 0.75; stroke: #000000; stroke-width: 0.186583; stroke-linejoin: miter"/>
   </g>
   <g id="patch_5">
    <path d="M 78.441875 273.312 
L 84.393875 273.312 
L 84.393875 197.030695 
L 78.441875 197.030695 
z
" clip-path="url(#p9d32f8c835)" style="fill: #0173b2; fill-opacity: 0.75; stroke: #000000; stroke-width: 0.186583; stroke-linejoin: miter"/>
   </g>
   <g id="patch_6">
    <path d="M 84.393875 273.312 
L 90.345875 273.312 
L 90.345875 200.131808 
L 84.393875 200.131808 
z
" clip-path="url(#p9d32f8c835)" style="fill: #0173b2; fill-opacity: 0.75; stroke: #000000; stroke-width: 0.186583; stroke-linejoin: miter"/>
   </g>
   <g id="patch_7">
    <path d="M 90.345875 273.312 
L 96.297875 273.312 
L 96.297875 237.938027 
L 90.345875 237.938027 
z
" clip-path="url(#p9d32f8c835)" style="fill: #0173b2; fill-opacity: 0.75; stroke: #000000; stroke-width: 0.186583; stroke-linejoin: miter"/>
   </g>
   <g id="patch_8">
    <path d="M 96.297875 273.312 
L 102.249875 273.312 
L 102.249875 236.493881 
L 96.297875 236.493881 
z
" clip-path="url(#p9d32f8c835)" style="fill: #0173b2; fill-opacity: 0.75; stroke: #000000; stroke-width: 0.186583; stroke-linejoin: miter"/>
   </g>
   <g id="patch_9">
    <path d="M 102.249875 273.312 
L 108.201875 273.312 
L 108.201875 252.257873 
L 102.249875 252.257873 
z
" clip-path="url(#p9d32f8c835)" style="fill: #0173b2; fill-opacity: 0.75; stroke: #000000; stroke-width: 0.186583; stroke-linejoin: miter"/>
   </g>
   <g id="patch_10">
    <path d="M 108.201875 273.312 
L 114.153875 273.312 
L 114.153875 253.124361 
L 108.201875 253.124361 
z
" clip-path="url(#p9d32f8c835)" style="fill: #0173b2; fill-opacity: 0.75; stroke: #000000; stroke-width: 0.186583; stroke-linejoin: miter"/>
   </g>
   <g id="patch_11">
    <path d="M 114.153875 273.312 
L 120.105875 273.312 
L 120.105875 259.995455 
L 114.153875 259.995455 
z
" clip-path="url(#p9d32f8c835)" style="fill: #0173b2; fill-opacity: 0.75; stroke: #000000; stroke-width: 0.186583; stroke-linejoin: miter"/>
   </g>
   <g id="patch_12">
    <path d="M 120.105875 273.312 
L 126.057875 273.312 
L 126.057875 259.585013 
L 120.105875 259.585013 
z
" clip-path="url(#p9d32f8c835)" style="fill: #0173b2; fill-opacity: 0.75; stroke: #000000; stroke-width: 0.186583; stroke-linejoin: miter"/>
   </g>
   <g id="patch_13">
    <path d="M 126.057875 273.312 
L 132.009875 273.312 
L 132.009875 263.202979 
L 126.057875 263.202979 
z
" clip-path="url(#p9d32f8c835)" style="fill: #0173b2; fill-opacity: 0.75; stroke: #000000; stroke-width: 0.186583; stroke-linejoin: miter"/>
   </g>
   <g id="patch_14">
    <path d="M 132.009875 273.312 
L 137.961875 273.312 
L 137.961875 264.753536 
L 132.009875 264.753536 
z
" clip-path="url(#p9d32f8c835)" style="fill: #0173b2; fill-opacity: 0.75; stroke: #000000; stroke-width: 0.186583; stroke-linejoin: miter"/>
   </g>
   <g id="patch_15">
    <path d="M 137.961875 273.312 
L 143.913875 273.312 
L 143.913875 265.98486 
L 137.961875 265.98486 
z
" clip-path="url(#p9d32f8c835)" style="fill: #0173b2; fill-opacity: 0.75; stroke: #000000; stroke-width: 0.186583; stroke-linejoin: miter"/>
   </g>
   <g id="patch_16">
    <path d="M 143.913875 273.312 
L 149.865875 273.312 
L 149.865875 266.273689 
L 143.913875 266.273689 
z
" clip-path="url(#p9d32f8c835)" style="fill: #0173b2; fill-opacity: 0.75; stroke: #000000; stroke-width: 0.186583; stroke-linejoin: miter"/>
   </g>
   <g id="patch_17">
    <path d="M 149.865875 273.312 
L 155.817875 273.312 
L 155.817875 268.037067 
L 149.865875 268.037067 
z
" clip-path="url(#p9d32f8c835)" style="fill: #0173b2; fill-opacity: 0.75; stroke: #000000; stroke-width: 0.186583; stroke-linejoin: miter"/>
   </g>
   <g id="patch_18">
    <path d="M 155.817875 273.312 
L 161.769875 273.312 
L 161.769875 268.113075 
L 155.817875 268.113075 
z
" clip-path="url(#p9d32f8c835)" style="fill: #0173b2; fill-opacity: 0.75; stroke: #000000; stroke-width: 0.186583; stroke-linejoin: miter"/>
   </g>
   <g id="patch_19">
    <path d="M 161.769875 273.312 
L 167.721875 273.312 
L 167.721875 268.903555 
L 161.769875 268.903555 
z
" clip-path="url(#p9d32f8c835)" style="fill: #0173b2; fill-opacity: 0.75; stroke: #000000; stroke-width: 0.186583; stroke-linejoin: miter"/>
   </g>
   <g id="patch_20">
    <path d="M 167.721875 273.312 
L 173.673875 273.312 
L 173.673875 269.207585 
L 167.721875 269.207585 
z
" clip-path="url(#p9d32f8c835)" style="fill: #0173b2; fill-opacity: 0.75; stroke: #000000; stroke-width: 0.186583; stroke-linejoin: miter"/>
   </g>
   <g id="patch_21">
    <path d="M 173.673875 273.312 
L 179.625875 273.312 
L 179.625875 269.922058 
L 173.673875 269.922058 
z
" clip-path="url(#p9d32f8c835)" style="fill: #0173b2; fill-opacity: 0.75; stroke: #000000; stroke-width: 0.186583; stroke-linejoin: miter"/>
   </g>
   <g id="patch_22">
    <path d="M 179.625875 273.312 
L 185.577875 273.312 
L 185.577875 270.226088 
L 179.625875 270.226088 
z
" clip-path="url(#p9d32f8c835)" style="fill: #0173b2; fill-opacity: 0.75; stroke: #000000; stroke-width: 0.186583; stroke-linejoin: miter"/>
   </g>
   <g id="patch_23">
    <path d="M 185.577875 273.312 
L 191.529875 273.312 
L 191.529875 270.83415 
L 185.577875 270.83415 
z
" clip-path="url(#p9d32f8c835)" style="fill: #0173b2; fill-opacity: 0.75; stroke: #000000; stroke-width: 0.186583; stroke-linejoin: miter"/>
   </g>
   <g id="patch_24">
    <path d="M 191.529875 273.312 
L 197.481875 273.312 
L 197.481875 270.910157 
L 191.529875 270.910157 
z
" clip-path="url(#p9d32f8c835)" style="fill: #0173b2; fill-opacity: 0.75; stroke: #000000; stroke-width: 0.186583; stroke-linejoin: miter"/>
   </g>
   <g id="patch_25">
    <path d="M 197.481875 273.312 
L 203.433875 273.312 
L 203.433875 270.803747 
L 197.481875 270.803747 
z
" clip-path="url(#p9d32f8c835)" style="fill: #0173b2; fill-opacity: 0.75; stroke: #000000; stroke-width: 0.186583; stroke-linejoin: miter"/>
   </g>
   <g id="patch_26">
    <path d="M 203.433875 273.312 
L 209.385875 273.312 
L 209.385875 271.168583 
L 203.433875 271.168583 
z
" clip-path="url(#p9d32f8c835)" style="fill: #0173b2; fill-opacity: 0.75; stroke: #000000; stroke-width: 0.186583; stroke-linejoin: miter"/>
   </g>
   <g id="patch_27">
    <path d="M 209.385875 273.312 
L 215.337875 273.312 
L 215.337875 271.442211 
L 209.385875 271.442211 
z
" clip-path="url(#p9d32f8c835)" style="fill: #0173b2; fill-opacity: 0.75; stroke: #000000; stroke-width: 0.186583; stroke-linejoin: miter"/>
   </g>
   <g id="patch_28">
    <path d="M 215.337875 273.312 
L 221.289875 273.312 
L 221.289875 271.518219 
L 215.337875 271.518219 
z
" clip-path="url(#p9d32f8c835)" style="fill: #0173b2; fill-opacity: 0.75; stroke: #000000; stroke-width: 0.186583; stroke-linejoin: miter"/>
   </g>
   <g id="patch_29">
    <path d="M 221.289875 273.312 
L 227.241875 273.312 
L 227.241875 271.959063 
L 221.289875 271.959063 
z
" clip-path="url(#p9d32f8c835)" style="fill: #0173b2; fill-opacity: 0.75; stroke: #000000; stroke-width: 0.186583; stroke-linejoin: miter"/>
   </g>
   <g id="patch_30">
    <path d="M 227.241875 273.312 
L 233.193875 273.312 
L 233.193875 272.111079 
L 227.241875 272.111079 
z
" clip-path="url(#p9d32f8c835)" style="fill: #0173b2; fill-opacity: 0.75; stroke: #000000; stroke-width: 0.186583; stroke-linejoin: miter"/>
   </g>
   <g id="patch_31">
    <path d="M 233.193875 273.312 
L 239.145875 273.312 
L 239.145875 272.475916 
L 233.193875 272.475916 
z
" clip-path="url(#p9d32f8c835)" style="fill: #0173b2; fill-opacity: 0.75; stroke: #000000; stroke-width: 0.186583; stroke-linejoin: miter"/>
   </g>
   <g id="patch_32">
    <path d="M 239.145875 273.312 
L 245.097875 273.312 
L 245.097875 272.111079 
L 239.145875 272.111079 
z
" clip-path="url(#p9d32f8c835)" style="fill: #0173b2; fill-opacity: 0.75; stroke: #000000; stroke-width: 0.186583; stroke-linejoin: miter"/>
   </g>
   <g id="patch_33">
    <path d="M 245.097875 273.312 
L 251.049875 273.312 
L 251.049875 272.475916 
L 245.097875 272.475916 
z
" clip-path="url(#p9d32f8c835)" style="fill: #0173b2; fill-opacity: 0.75; stroke: #000000; stroke-width: 0.186583; stroke-linejoin: miter"/>
   </g>
   <g id="patch_34">
    <path d="M 251.049875 273.312 
L 257.001875 273.312 
L 257.001875 272.460714 
L 251.049875 272.460714 
z
" clip-path="url(#p9d32f8c835)" style="fill: #0173b2; fill-opacity: 0.75; stroke: #000000; stroke-width: 0.186583; stroke-linejoin: miter"/>
   </g>
   <g id="patch_35">
    <path d="M 257.001875 273.312 
L 262.953875 273.312 
L 262.953875 272.627931 
L 257.001875 272.627931 
z
" clip-path="url(#p9d32f8c835)" style="fill: #0173b2; fill-opacity: 0.75; stroke: #000000; stroke-width: 0.186583; stroke-linejoin: miter"/>
   </g>
   <g id="patch_36">
    <path d="M 262.953875 273.312 
L 268.905875 273.312 
L 268.905875 272.612729 
L 262.953875 272.612729 
z
" clip-path="url(#p9d32f8c835)" style="fill: #0173b2; fill-opacity: 0.75; stroke: #000000; stroke-width: 0.186583; stroke-linejoin: miter"/>
   </g>
   <g id="patch_37">
    <path d="M 268.905875 273.312 
L 274.857875 273.312 
L 274.857875 272.71914 
L 268.905875 272.71914 
z
" clip-path="url(#p9d32f8c835)" style="fill: #0173b2; fill-opacity: 0.75; stroke: #000000; stroke-width: 0.186583; stroke-linejoin: miter"/>
   </g>
   <g id="patch_38">
    <path d="M 274.857875 273.312 
L 280.809875 273.312 
L 280.809875 272.688737 
L 274.857875 272.688737 
z
" clip-path="url(#p9d32f8c835)" style="fill: #0173b2; fill-opacity: 0.75; stroke: #000000; stroke-width: 0.186583; stroke-linejoin: miter"/>
   </g>
   <g id="patch_39">
    <path d="M 280.809875 273.312 
L 286.761875 273.312 
L 286.761875 272.703939 
L 280.809875 272.703939 
z
" clip-path="url(#p9d32f8c835)" style="fill: #0173b2; fill-opacity: 0.75; stroke: #000000; stroke-width: 0.186583; stroke-linejoin: miter"/>
   </g>
   <g id="patch_40">
    <path d="M 286.761875 273.312 
L 292.713875 273.312 
L 292.713875 272.749543 
L 286.761875 272.749543 
z
" clip-path="url(#p9d32f8c835)" style="fill: #0173b2; fill-opacity: 0.75; stroke: #000000; stroke-width: 0.186583; stroke-linejoin: miter"/>
   </g>
   <g id="patch_41">
    <path d="M 292.713875 273.312 
L 298.665875 273.312 
L 298.665875 272.91676 
L 292.713875 272.91676 
z
" clip-path="url(#p9d32f8c835)" style="fill: #0173b2; fill-opacity: 0.75; stroke: #000000; stroke-width: 0.186583; stroke-linejoin: miter"/>
   </g>
   <g id="patch_42">
    <path d="M 298.665875 273.312 
L 304.617875 273.312 
L 304.617875 272.825551 
L 298.665875 272.825551 
z
" clip-path="url(#p9d32f8c835)" style="fill: #0173b2; fill-opacity: 0.75; stroke: #000000; stroke-width: 0.186583; stroke-linejoin: miter"/>
   </g>
   <g id="patch_43">
    <path d="M 304.617875 273.312 
L 310.569875 273.312 
L 310.569875 272.840752 
L 304.617875 272.840752 
z
" clip-path="url(#p9d32f8c835)" style="fill: #0173b2; fill-opacity: 0.75; stroke: #000000; stroke-width: 0.186583; stroke-linejoin: miter"/>
   </g>
   <g id="patch_44">
    <path d="M 310.569875 273.312 
L 316.521875 273.312 
L 316.521875 272.901559 
L 310.569875 272.901559 
z
" clip-path="url(#p9d32f8c835)" style="fill: #0173b2; fill-opacity: 0.75; stroke: #000000; stroke-width: 0.186583; stroke-linejoin: miter"/>
   </g>
   <g id="patch_45">
    <path d="M 316.521875 273.312 
L 322.473875 273.312 
L 322.473875 272.962365 
L 316.521875 272.962365 
z
" clip-path="url(#p9d32f8c835)" style="fill: #0173b2; fill-opacity: 0.75; stroke: #000000; stroke-width: 0.186583; stroke-linejoin: miter"/>
   </g>
   <g id="patch_46">
    <path d="M 322.473875 273.312 
L 328.425875 273.312 
L 328.425875 272.947163 
L 322.473875 272.947163 
z
" clip-path="url(#p9d32f8c835)" style="fill: #0173b2; fill-opacity: 0.75; stroke: #000000; stroke-width: 0.186583; stroke-linejoin: miter"/>
   </g>
   <g id="patch_47">
    <path d="M 328.425875 273.312 
L 334.377875 273.312 
L 334.377875 273.038372 
L 328.425875 273.038372 
z
" clip-path="url(#p9d32f8c835)" style="fill: #0173b2; fill-opacity: 0.75; stroke: #000000; stroke-width: 0.186583; stroke-linejoin: miter"/>
   </g>
   <g id="patch_48">
    <path d="M 334.377875 273.312 
L 340.329875 273.312 
L 340.329875 273.038372 
L 334.377875 273.038372 
z
" clip-path="url(#p9d32f8c835)" style="fill: #0173b2; fill-opacity: 0.75; stroke: #000000; stroke-width: 0.186583; stroke-linejoin: miter"/>
   </g>
   <g id="patch_49">
    <path d="M 340.329875 273.312 
L 346.281875 273.312 
L 346.281875 272.977566 
L 340.329875 272.977566 
z
" clip-path="url(#p9d32f8c835)" style="fill: #0173b2; fill-opacity: 0.75; stroke: #000000; stroke-width: 0.186583; stroke-linejoin: miter"/>
   </g>
   <g id="patch_50">
    <path d="M 346.281875 273.312 
L 352.233875 273.312 
L 352.233875 272.962365 
L 346.281875 272.962365 
z
" clip-path="url(#p9d32f8c835)" style="fill: #0173b2; fill-opacity: 0.75; stroke: #000000; stroke-width: 0.186583; stroke-linejoin: miter"/>
   </g>
   <g id="patch_51">
    <path d="M 352.233875 273.312 
L 358.185875 273.312 
L 358.185875 273.129582 
L 352.233875 273.129582 
z
" clip-path="url(#p9d32f8c835)" style="fill: #0173b2; fill-opacity: 0.75; stroke: #000000; stroke-width: 0.186583; stroke-linejoin: miter"/>
   </g>
   <g id="patch_52">
    <path d="M 358.185875 273.312 
L 364.137875 273.312 
L 364.137875 273.023171 
L 358.185875 273.023171 
z
" clip-path="url(#p9d32f8c835)" style="fill: #0173b2; fill-opacity: 0.75; stroke: #000000; stroke-width: 0.186583; stroke-linejoin: miter"/>
   </g>
   <g id="patch_53">
    <path d="M 364.137875 273.312 
L 370.089875 273.312 
L 370.089875 273.144783 
L 364.137875 273.144783 
z
" clip-path="url(#p9d32f8c835)" style="fill: #0173b2; fill-opacity: 0.75; stroke: #000000; stroke-width: 0.186583; stroke-linejoin: miter"/>
   </g>
   <g id="patch_54">
    <path d="M 370.089875 273.312 
L 376.041875 273.312 
L 376.041875 273.11438 
L 370.089875 273.11438 
z
" clip-path="url(#p9d32f8c835)" style="fill: #0173b2; fill-opacity: 0.75; stroke: #000000; stroke-width: 0.186583; stroke-linejoin: miter"/>
   </g>
   <g id="patch_55">
    <path d="M 376.041875 273.312 
L 381.993875 273.312 
L 381.993875 273.159985 
L 376.041875 273.159985 
z
" clip-path="url(#p9d32f8c835)" style="fill: #0173b2; fill-opacity: 0.75; stroke: #000000; stroke-width: 0.186583; stroke-linejoin: miter"/>
   </g>
   <g id="patch_56">
    <path d="M 381.993875 273.312 
L 387.945875 273.312 
L 387.945875 273.235992 
L 381.993875 273.235992 
z
" clip-path="url(#p9d32f8c835)" style="fill: #0173b2; fill-opacity: 0.75; stroke: #000000; stroke-width: 0.186583; stroke-linejoin: miter"/>
   </g>
   <g id="patch_57">
    <path d="M 387.945875 273.312 
L 393.897875 273.312 
L 393.897875 273.11438 
L 387.945875 273.11438 
z
" clip-path="url(#p9d32f8c835)" style="fill: #0173b2; fill-opacity: 0.75; stroke: #000000; stroke-width: 0.186583; stroke-linejoin: miter"/>
   </g>
   <g id="patch_58">
    <path d="M 393.897875 273.312 
L 399.849875 273.312 
L 399.849875 273.159985 
L 393.897875 273.159985 
z
" clip-path="url(#p9d32f8c835)" style="fill: #0173b2; fill-opacity: 0.75; stroke: #000000; stroke-width: 0.186583; stroke-linejoin: miter"/>
   </g>
   <g id="patch_59">
    <path d="M 399.849875 273.312 
L 405.801875 273.312 
L 405.801875 273.251194 
L 399.849875 273.251194 
z
" clip-path="url(#p9d32f8c835)" style="fill: #0173b2; fill-opacity: 0.75; stroke: #000000; stroke-width: 0.186583; stroke-linejoin: miter"/>
   </g>
   <g id="patch_60">
    <path d="M 405.801875 273.312 
L 411.753875 273.312 
L 411.753875 273.190388 
L 405.801875 273.190388 
z
" clip-path="url(#p9d32f8c835)" style="fill: #0173b2; fill-opacity: 0.75; stroke: #000000; stroke-width: 0.186583; stroke-linejoin: miter"/>
   </g>
   <g id="patch_61">
    <path d="M 411.753875 273.312 
L 417.705875 273.312 
L 417.705875 273.205589 
L 411.753875 273.205589 
z
" clip-path="url(#p9d32f8c835)" style="fill: #0173b2; fill-opacity: 0.75; stroke: #000000; stroke-width: 0.186583; stroke-linejoin: miter"/>
   </g>
   <g id="patch_62">
    <path d="M 417.705875 273.312 
L 423.657875 273.312 
L 423.657875 273.175186 
L 417.705875 273.175186 
z
" clip-path="url(#p9d32f8c835)" style="fill: #0173b2; fill-opacity: 0.75; stroke: #000000; stroke-width: 0.186583; stroke-linejoin: miter"/>
   </g>
   <g id="patch_63">
    <path d="M 423.657875 273.312 
L 429.609875 273.312 
L 429.609875 273.220791 
L 423.657875 273.220791 
z
" clip-path="url(#p9d32f8c835)" style="fill: #0173b2; fill-opacity: 0.75; stroke: #000000; stroke-width: 0.186583; stroke-linejoin: miter"/>
   </g>
   <g id="patch_64">
    <path d="M 429.609875 273.312 
L 435.561875 273.312 
L 435.561875 273.266395 
L 429.609875 273.266395 
z
" clip-path="url(#p9d32f8c835)" style="fill: #0173b2; fill-opacity: 0.75; stroke: #000000; stroke-width: 0.186583; stroke-linejoin: miter"/>
   </g>
   <g id="patch_65">
    <path d="M 435.561875 273.312 
L 441.513875 273.312 
L 441.513875 273.205589 
L 435.561875 273.205589 
z
" clip-path="url(#p9d32f8c835)" style="fill: #0173b2; fill-opacity: 0.75; stroke: #000000; stroke-width: 0.186583; stroke-linejoin: miter"/>
   </g>
   <g id="patch_66">
    <path d="M 441.513875 273.312 
L 447.465875 273.312 
L 447.465875 273.205589 
L 441.513875 273.205589 
z
" clip-path="url(#p9d32f8c835)" style="fill: #0173b2; fill-opacity: 0.75; stroke: #000000; stroke-width: 0.186583; stroke-linejoin: miter"/>
   </g>
   <g id="patch_67">
    <path d="M 447.465875 273.312 
L 453.417875 273.312 
L 453.417875 273.266395 
L 447.465875 273.266395 
z
" clip-path="url(#p9d32f8c835)" style="fill: #0173b2; fill-opacity: 0.75; stroke: #000000; stroke-width: 0.186583; stroke-linejoin: miter"/>
   </g>
   <g id="patch_68">
    <path d="M 453.417875 273.312 
L 459.369875 273.312 
L 459.369875 273.266395 
L 453.417875 273.266395 
z
" clip-path="url(#p9d32f8c835)" style="fill: #0173b2; fill-opacity: 0.75; stroke: #000000; stroke-width: 0.186583; stroke-linejoin: miter"/>
   </g>
   <g id="patch_69">
    <path d="M 459.369875 273.312 
L 465.321875 273.312 
L 465.321875 273.296798 
L 459.369875 273.296798 
z
" clip-path="url(#p9d32f8c835)" style="fill: #0173b2; fill-opacity: 0.75; stroke: #000000; stroke-width: 0.186583; stroke-linejoin: miter"/>
   </g>
   <g id="patch_70">
    <path d="M 465.321875 273.312 
L 471.273875 273.312 
L 471.273875 273.220791 
L 465.321875 273.220791 
z
" clip-path="url(#p9d32f8c835)" style="fill: #0173b2; fill-opacity: 0.75; stroke: #000000; stroke-width: 0.186583; stroke-linejoin: miter"/>
   </g>
   <g id="patch_71">
    <path d="M 471.273875 273.312 
L 477.225875 273.312 
L 477.225875 273.251194 
L 471.273875 273.251194 
z
" clip-path="url(#p9d32f8c835)" style="fill: #0173b2; fill-opacity: 0.75; stroke: #000000; stroke-width: 0.186583; stroke-linejoin: miter"/>
   </g>
   <g id="patch_72">
    <path d="M 477.225875 273.312 
L 483.177875 273.312 
L 483.177875 273.296798 
L 477.225875 273.296798 
z
" clip-path="url(#p9d32f8c835)" style="fill: #0173b2; fill-opacity: 0.75; stroke: #000000; stroke-width: 0.186583; stroke-linejoin: miter"/>
   </g>
   <g id="patch_73">
    <path d="M 483.177875 273.312 
L 489.129875 273.312 
L 489.129875 273.220791 
L 483.177875 273.220791 
z
" clip-path="url(#p9d32f8c835)" style="fill: #0173b2; fill-opacity: 0.75; stroke: #000000; stroke-width: 0.186583; stroke-linejoin: miter"/>
   </g>
   <g id="patch_74">
    <path d="M 489.129875 273.312 
L 495.081875 273.312 
L 495.081875 273.175186 
L 489.129875 273.175186 
z
" clip-path="url(#p9d32f8c835)" style="fill: #0173b2; fill-opacity: 0.75; stroke: #000000; stroke-width: 0.186583; stroke-linejoin: miter"/>
   </g>
   <g id="patch_75">
    <path d="M 495.081875 273.312 
L 501.033875 273.312 
L 501.033875 273.251194 
L 495.081875 273.251194 
z
" clip-path="url(#p9d32f8c835)" style="fill: #0173b2; fill-opacity: 0.75; stroke: #000000; stroke-width: 0.186583; stroke-linejoin: miter"/>
   </g>
   <g id="patch_76">
    <path d="M 501.033875 273.312 
L 506.985875 273.312 
L 506.985875 273.266395 
L 501.033875 273.266395 
z
" clip-path="url(#p9d32f8c835)" style="fill: #0173b2; fill-opacity: 0.75; stroke: #000000; stroke-width: 0.186583; stroke-linejoin: miter"/>
   </g>
   <g id="patch_77">
    <path d="M 506.985875 273.312 
L 512.937875 273.312 
L 512.937875 273.266395 
L 506.985875 273.266395 
z
" clip-path="url(#p9d32f8c835)" style="fill: #0173b2; fill-opacity: 0.75; stroke: #000000; stroke-width: 0.186583; stroke-linejoin: miter"/>
   </g>
   <g id="patch_78">
    <path d="M 512.937875 273.312 
L 518.889875 273.312 
L 518.889875 273.266395 
L 512.937875 273.266395 
z
" clip-path="url(#p9d32f8c835)" style="fill: #0173b2; fill-opacity: 0.75; stroke: #000000; stroke-width: 0.186583; stroke-linejoin: miter"/>
   </g>
   <g id="patch_79">
    <path d="M 518.889875 273.312 
L 524.841875 273.312 
L 524.841875 273.266395 
L 518.889875 273.266395 
z
" clip-path="url(#p9d32f8c835)" style="fill: #0173b2; fill-opacity: 0.75; stroke: #000000; stroke-width: 0.186583; stroke-linejoin: miter"/>
   </g>
   <g id="patch_80">
    <path d="M 524.841875 273.312 
L 530.793875 273.312 
L 530.793875 273.220791 
L 524.841875 273.220791 
z
" clip-path="url(#p9d32f8c835)" style="fill: #0173b2; fill-opacity: 0.75; stroke: #000000; stroke-width: 0.186583; stroke-linejoin: miter"/>
   </g>
   <g id="patch_81">
    <path d="M 530.793875 273.312 
L 536.745875 273.312 
L 536.745875 273.281597 
L 530.793875 273.281597 
z
" clip-path="url(#p9d32f8c835)" style="fill: #0173b2; fill-opacity: 0.75; stroke: #000000; stroke-width: 0.186583; stroke-linejoin: miter"/>
   </g>
   <g id="patch_82">
    <path d="M 536.745875 273.312 
L 542.697875 273.312 
L 542.697875 273.296798 
L 536.745875 273.296798 
z
" clip-path="url(#p9d32f8c835)" style="fill: #0173b2; fill-opacity: 0.75; stroke: #000000; stroke-width: 0.186583; stroke-linejoin: miter"/>
   </g>
   <g id="patch_83">
    <path d="M 542.697875 273.312 
L 548.649875 273.312 
L 548.649875 273.220791 
L 542.697875 273.220791 
z
" clip-path="url(#p9d32f8c835)" style="fill: #0173b2; fill-opacity: 0.75; stroke: #000000; stroke-width: 0.186583; stroke-linejoin: miter"/>
   </g>
   <g id="patch_84">
    <path d="M 548.649875 273.312 
L 554.601875 273.312 
L 554.601875 273.312 
L 548.649875 273.312 
z
" clip-path="url(#p9d32f8c835)" style="fill: #0173b2; fill-opacity: 0.75; stroke: #000000; stroke-width: 0.186583; stroke-linejoin: miter"/>
   </g>
   <g id="patch_85">
    <path d="M 554.601875 273.312 
L 560.553875 273.312 
L 560.553875 273.296798 
L 554.601875 273.296798 
z
" clip-path="url(#p9d32f8c835)" style="fill: #0173b2; fill-opacity: 0.75; stroke: #000000; stroke-width: 0.186583; stroke-linejoin: miter"/>
   </g>
   <g id="patch_86">
    <path d="M 560.553875 273.312 
L 566.505875 273.312 
L 566.505875 273.281597 
L 560.553875 273.281597 
z
" clip-path="url(#p9d32f8c835)" style="fill: #0173b2; fill-opacity: 0.75; stroke: #000000; stroke-width: 0.186583; stroke-linejoin: miter"/>
   </g>
   <g id="patch_87">
    <path d="M 566.505875 273.312 
L 572.457875 273.312 
L 572.457875 273.296798 
L 566.505875 273.296798 
z
" clip-path="url(#p9d32f8c835)" style="fill: #0173b2; fill-opacity: 0.75; stroke: #000000; stroke-width: 0.186583; stroke-linejoin: miter"/>
   </g>
   <g id="patch_88">
    <path d="M 572.457875 273.312 
L 578.409875 273.312 
L 578.409875 273.296798 
L 572.457875 273.296798 
z
" clip-path="url(#p9d32f8c835)" style="fill: #0173b2; fill-opacity: 0.75; stroke: #000000; stroke-width: 0.186583; stroke-linejoin: miter"/>
   </g>
   <g id="patch_89">
    <path d="M 578.409875 273.312 
L 584.361875 273.312 
L 584.361875 273.281597 
L 578.409875 273.281597 
z
" clip-path="url(#p9d32f8c835)" style="fill: #0173b2; fill-opacity: 0.75; stroke: #000000; stroke-width: 0.186583; stroke-linejoin: miter"/>
   </g>
   <g id="patch_90">
    <path d="M 584.361875 273.312 
L 590.313875 273.312 
L 590.313875 273.312 
L 584.361875 273.312 
z
" clip-path="url(#p9d32f8c835)" style="fill: #0173b2; fill-opacity: 0.75; stroke: #000000; stroke-width: 0.186583; stroke-linejoin: miter"/>
   </g>
   <g id="patch_91">
    <path d="M 590.313875 273.312 
L 596.265875 273.312 
L 596.265875 273.312 
L 590.313875 273.312 
z
" clip-path="url(#p9d32f8c835)" style="fill: #0173b2; fill-opacity: 0.75; stroke: #000000; stroke-width: 0.186583; stroke-linejoin: miter"/>
   </g>
   <g id="patch_92">
    <path d="M 596.265875 273.312 
L 602.217875 273.312 
L 602.217875 273.235992 
L 596.265875 273.235992 
z
" clip-path="url(#p9d32f8c835)" style="fill: #0173b2; fill-opacity: 0.75; stroke: #000000; stroke-width: 0.186583; stroke-linejoin: miter"/>
   </g>
   <g id="patch_93">
    <path d="M 602.217875 273.312 
L 608.169875 273.312 
L 608.169875 273.312 
L 602.217875 273.312 
z
" clip-path="url(#p9d32f8c835)" style="fill: #0173b2; fill-opacity: 0.75; stroke: #000000; stroke-width: 0.186583; stroke-linejoin: miter"/>
   </g>
   <g id="patch_94">
    <path d="M 608.169875 273.312 
L 614.121875 273.312 
L 614.121875 273.296798 
L 608.169875 273.296798 
z
" clip-path="url(#p9d32f8c835)" style="fill: #0173b2; fill-opacity: 0.75; stroke: #000000; stroke-width: 0.186583; stroke-linejoin: miter"/>
   </g>
   <g id="patch_95">
    <path d="M 614.121875 273.312 
L 620.073875 273.312 
L 620.073875 273.296798 
L 614.121875 273.296798 
z
" clip-path="url(#p9d32f8c835)" style="fill: #0173b2; fill-opacity: 0.75; stroke: #000000; stroke-width: 0.186583; stroke-linejoin: miter"/>
   </g>
   <g id="patch_96">
    <path d="M 620.073875 273.312 
L 626.025875 273.312 
L 626.025875 273.296798 
L 620.073875 273.296798 
z
" clip-path="url(#p9d32f8c835)" style="fill: #0173b2; fill-opacity: 0.75; stroke: #000000; stroke-width: 0.186583; stroke-linejoin: miter"/>
   </g>
   <g id="patch_97">
    <path d="M 626.025875 273.312 
L 631.977875 273.312 
L 631.977875 273.312 
L 626.025875 273.312 
z
" clip-path="url(#p9d32f8c835)" style="fill: #0173b2; fill-opacity: 0.75; stroke: #000000; stroke-width: 0.186583; stroke-linejoin: miter"/>
   </g>
   <g id="patch_98">
    <path d="M 631.977875 273.312 
L 637.929875 273.312 
L 637.929875 273.312 
L 631.977875 273.312 
z
" clip-path="url(#p9d32f8c835)" style="fill: #0173b2; fill-opacity: 0.75; stroke: #000000; stroke-width: 0.186583; stroke-linejoin: miter"/>
   </g>
   <g id="patch_99">
    <path d="M 637.929875 273.312 
L 643.881875 273.312 
L 643.881875 273.266395 
L 637.929875 273.266395 
z
" clip-path="url(#p9d32f8c835)" style="fill: #0173b2; fill-opacity: 0.75; stroke: #000000; stroke-width: 0.186583; stroke-linejoin: miter"/>
   </g>
   <g id="patch_100">
    <path d="M 643.881875 273.312 
L 649.833875 273.312 
L 649.833875 273.266395 
L 643.881875 273.266395 
z
" clip-path="url(#p9d32f8c835)" style="fill: #0173b2; fill-opacity: 0.75; stroke: #000000; stroke-width: 0.186583; stroke-linejoin: miter"/>
   </g>
   <g id="patch_101">
    <path d="M 649.833875 273.312 
L 655.785875 273.312 
L 655.785875 273.296798 
L 649.833875 273.296798 
z
" clip-path="url(#p9d32f8c835)" style="fill: #0173b2; fill-opacity: 0.75; stroke: #000000; stroke-width: 0.186583; stroke-linejoin: miter"/>
   </g>
   <g id="patch_102">
    <path d="M 655.785875 273.312 
L 661.737875 273.312 
L 661.737875 273.312 
L 655.785875 273.312 
z
" clip-path="url(#p9d32f8c835)" style="fill: #0173b2; fill-opacity: 0.75; stroke: #000000; stroke-width: 0.186583; stroke-linejoin: miter"/>
   </g>
   <g id="patch_103">
    <path d="M 661.737875 273.312 
L 667.689875 273.312 
L 667.689875 273.296798 
L 661.737875 273.296798 
z
" clip-path="url(#p9d32f8c835)" style="fill: #0173b2; fill-opacity: 0.75; stroke: #000000; stroke-width: 0.186583; stroke-linejoin: miter"/>
   </g>
   <g id="patch_104">
    <path d="M 667.689875 273.312 
L 673.641875 273.312 
L 673.641875 273.266395 
L 667.689875 273.266395 
z
" clip-path="url(#p9d32f8c835)" style="fill: #0173b2; fill-opacity: 0.75; stroke: #000000; stroke-width: 0.186583; stroke-linejoin: miter"/>
   </g>
   <g id="patch_105">
    <path d="M 673.641875 273.312 
L 679.593875 273.312 
L 679.593875 273.296798 
L 673.641875 273.296798 
z
" clip-path="url(#p9d32f8c835)" style="fill: #0173b2; fill-opacity: 0.75; stroke: #000000; stroke-width: 0.186583; stroke-linejoin: miter"/>
   </g>
   <g id="patch_106">
    <path d="M 679.593875 273.312 
L 685.545875 273.312 
L 685.545875 273.312 
L 679.593875 273.312 
z
" clip-path="url(#p9d32f8c835)" style="fill: #0173b2; fill-opacity: 0.75; stroke: #000000; stroke-width: 0.186583; stroke-linejoin: miter"/>
   </g>
   <g id="patch_107">
    <path d="M 685.545875 273.312 
L 691.497875 273.312 
L 691.497875 273.281597 
L 685.545875 273.281597 
z
" clip-path="url(#p9d32f8c835)" style="fill: #0173b2; fill-opacity: 0.75; stroke: #000000; stroke-width: 0.186583; stroke-linejoin: miter"/>
   </g>
   <g id="patch_108">
    <path d="M 691.497875 273.312 
L 697.449875 273.312 
L 697.449875 273.296798 
L 691.497875 273.296798 
z
" clip-path="url(#p9d32f8c835)" style="fill: #0173b2; fill-opacity: 0.75; stroke: #000000; stroke-width: 0.186583; stroke-linejoin: miter"/>
   </g>
   <g id="patch_109">
    <path d="M 697.449875 273.312 
L 703.401875 273.312 
L 703.401875 273.296798 
L 697.449875 273.296798 
z
" clip-path="url(#p9d32f8c835)" style="fill: #0173b2; fill-opacity: 0.75; stroke: #000000; stroke-width: 0.186583; stroke-linejoin: miter"/>
   </g>
   <g id="patch_110">
    <path d="M 703.401875 273.312 
L 709.353875 273.312 
L 709.353875 273.312 
L 703.401875 273.312 
z
" clip-path="url(#p9d32f8c835)" style="fill: #0173b2; fill-opacity: 0.75; stroke: #000000; stroke-width: 0.186583; stroke-linejoin: miter"/>
   </g>
   <g id="patch_111">
    <path d="M 709.353875 273.312 
L 715.305875 273.312 
L 715.305875 273.312 
L 709.353875 273.312 
z
" clip-path="url(#p9d32f8c835)" style="fill: #0173b2; fill-opacity: 0.75; stroke: #000000; stroke-width: 0.186583; stroke-linejoin: miter"/>
   </g>
   <g id="patch_112">
    <path d="M 715.305875 273.312 
L 721.257875 273.312 
L 721.257875 273.312 
L 715.305875 273.312 
z
" clip-path="url(#p9d32f8c835)" style="fill: #0173b2; fill-opacity: 0.75; stroke: #000000; stroke-width: 0.186583; stroke-linejoin: miter"/>
   </g>
   <g id="patch_113">
    <path d="M 721.257875 273.312 
L 727.209875 273.312 
L 727.209875 273.296798 
L 721.257875 273.296798 
z
" clip-path="url(#p9d32f8c835)" style="fill: #0173b2; fill-opacity: 0.75; stroke: #000000; stroke-width: 0.186583; stroke-linejoin: miter"/>
   </g>
   <g id="patch_114">
    <path d="M 727.209875 273.312 
L 733.161875 273.312 
L 733.161875 273.312 
L 727.209875 273.312 
z
" clip-path="url(#p9d32f8c835)" style="fill: #0173b2; fill-opacity: 0.75; stroke: #000000; stroke-width: 0.186583; stroke-linejoin: miter"/>
   </g>
   <g id="patch_115">
    <path d="M 733.161875 273.312 
L 739.113875 273.312 
L 739.113875 273.296798 
L 733.161875 273.296798 
z
" clip-path="url(#p9d32f8c835)" style="fill: #0173b2; fill-opacity: 0.75; stroke: #000000; stroke-width: 0.186583; stroke-linejoin: miter"/>
   </g>
   <g id="patch_116">
    <path d="M 739.113875 273.312 
L 745.065875 273.312 
L 745.065875 273.312 
L 739.113875 273.312 
z
" clip-path="url(#p9d32f8c835)" style="fill: #0173b2; fill-opacity: 0.75; stroke: #000000; stroke-width: 0.186583; stroke-linejoin: miter"/>
   </g>
   <g id="patch_117">
    <path d="M 745.065875 273.312 
L 751.017875 273.312 
L 751.017875 273.296798 
L 745.065875 273.296798 
z
" clip-path="url(#p9d32f8c835)" style="fill: #0173b2; fill-opacity: 0.75; stroke: #000000; stroke-width: 0.186583; stroke-linejoin: miter"/>
   </g>
   <g id="patch_118">
    <path d="M 751.017875 273.312 
L 756.969875 273.312 
L 756.969875 273.312 
L 751.017875 273.312 
z
" clip-path="url(#p9d32f8c835)" style="fill: #0173b2; fill-opacity: 0.75; stroke: #000000; stroke-width: 0.186583; stroke-linejoin: miter"/>
   </g>
   <g id="patch_119">
    <path d="M 756.969875 273.312 
L 762.921875 273.312 
L 762.921875 273.312 
L 756.969875 273.312 
z
" clip-path="url(#p9d32f8c835)" style="fill: #0173b2; fill-opacity: 0.75; stroke: #000000; stroke-width: 0.186583; stroke-linejoin: miter"/>
   </g>
   <g id="patch_120">
    <path d="M 762.921875 273.312 
L 768.873875 273.312 
L 768.873875 273.312 
L 762.921875 273.312 
z
" clip-path="url(#p9d32f8c835)" style="fill: #0173b2; fill-opacity: 0.75; stroke: #000000; stroke-width: 0.186583; stroke-linejoin: miter"/>
   </g>
   <g id="patch_121">
    <path d="M 768.873875 273.312 
L 774.825875 273.312 
L 774.825875 273.296798 
L 768.873875 273.296798 
z
" clip-path="url(#p9d32f8c835)" style="fill: #0173b2; fill-opacity: 0.75; stroke: #000000; stroke-width: 0.186583; stroke-linejoin: miter"/>
   </g>
   <g id="patch_122">
    <path d="M 774.825875 273.312 
L 780.777875 273.312 
L 780.777875 273.296798 
L 774.825875 273.296798 
z
" clip-path="url(#p9d32f8c835)" style="fill: #0173b2; fill-opacity: 0.75; stroke: #000000; stroke-width: 0.186583; stroke-linejoin: miter"/>
   </g>
   <g id="patch_123">
    <path d="M 780.777875 273.312 
L 786.729875 273.312 
L 786.729875 273.312 
L 780.777875 273.312 
z
" clip-path="url(#p9d32f8c835)" style="fill: #0173b2; fill-opacity: 0.75; stroke: #000000; stroke-width: 0.186583; stroke-linejoin: miter"/>
   </g>
   <g id="patch_124">
    <path d="M 786.729875 273.312 
L 792.681875 273.312 
L 792.681875 273.312 
L 786.729875 273.312 
z
" clip-path="url(#p9d32f8c835)" style="fill: #0173b2; fill-opacity: 0.75; stroke: #000000; stroke-width: 0.186583; stroke-linejoin: miter"/>
   </g>
   <g id="patch_125">
    <path d="M 792.681875 273.312 
L 798.633875 273.312 
L 798.633875 273.312 
L 792.681875 273.312 
z
" clip-path="url(#p9d32f8c835)" style="fill: #0173b2; fill-opacity: 0.75; stroke: #000000; stroke-width: 0.186583; stroke-linejoin: miter"/>
   </g>
   <g id="patch_126">
    <path d="M 798.633875 273.312 
L 804.585875 273.312 
L 804.585875 273.312 
L 798.633875 273.312 
z
" clip-path="url(#p9d32f8c835)" style="fill: #0173b2; fill-opacity: 0.75; stroke: #000000; stroke-width: 0.186583; stroke-linejoin: miter"/>
   </g>
   <g id="patch_127">
    <path d="M 804.585875 273.312 
L 810.537875 273.312 
L 810.537875 273.312 
L 804.585875 273.312 
z
" clip-path="url(#p9d32f8c835)" style="fill: #0173b2; fill-opacity: 0.75; stroke: #000000; stroke-width: 0.186583; stroke-linejoin: miter"/>
   </g>
   <g id="patch_128">
    <path d="M 810.537875 273.312 
L 816.489875 273.312 
L 816.489875 273.312 
L 810.537875 273.312 
z
" clip-path="url(#p9d32f8c835)" style="fill: #0173b2; fill-opacity: 0.75; stroke: #000000; stroke-width: 0.186583; stroke-linejoin: miter"/>
   </g>
   <g id="patch_129">
    <path d="M 816.489875 273.312 
L 822.441875 273.312 
L 822.441875 273.312 
L 816.489875 273.312 
z
" clip-path="url(#p9d32f8c835)" style="fill: #0173b2; fill-opacity: 0.75; stroke: #000000; stroke-width: 0.186583; stroke-linejoin: miter"/>
   </g>
   <g id="patch_130">
    <path d="M 822.441875 273.312 
L 828.393875 273.312 
L 828.393875 273.312 
L 822.441875 273.312 
z
" clip-path="url(#p9d32f8c835)" style="fill: #0173b2; fill-opacity: 0.75; stroke: #000000; stroke-width: 0.186583; stroke-linejoin: miter"/>
   </g>
   <g id="patch_131">
    <path d="M 828.393875 273.312 
L 834.345875 273.312 
L 834.345875 273.312 
L 828.393875 273.312 
z
" clip-path="url(#p9d32f8c835)" style="fill: #0173b2; fill-opacity: 0.75; stroke: #000000; stroke-width: 0.186583; stroke-linejoin: miter"/>
   </g>
   <g id="patch_132">
    <path d="M 834.345875 273.312 
L 840.297875 273.312 
L 840.297875 273.312 
L 834.345875 273.312 
z
" clip-path="url(#p9d32f8c835)" style="fill: #0173b2; fill-opacity: 0.75; stroke: #000000; stroke-width: 0.186583; stroke-linejoin: miter"/>
   </g>
   <g id="patch_133">
    <path d="M 840.297875 273.312 
L 846.249875 273.312 
L 846.249875 273.312 
L 840.297875 273.312 
z
" clip-path="url(#p9d32f8c835)" style="fill: #0173b2; fill-opacity: 0.75; stroke: #000000; stroke-width: 0.186583; stroke-linejoin: miter"/>
   </g>
   <g id="patch_134">
    <path d="M 846.249875 273.312 
L 852.201875 273.312 
L 852.201875 273.312 
L 846.249875 273.312 
z
" clip-path="url(#p9d32f8c835)" style="fill: #0173b2; fill-opacity: 0.75; stroke: #000000; stroke-width: 0.186583; stroke-linejoin: miter"/>
   </g>
   <g id="patch_135">
    <path d="M 852.201875 273.312 
L 858.153875 273.312 
L 858.153875 273.312 
L 852.201875 273.312 
z
" clip-path="url(#p9d32f8c835)" style="fill: #0173b2; fill-opacity: 0.75; stroke: #000000; stroke-width: 0.186583; stroke-linejoin: miter"/>
   </g>
   <g id="patch_136">
    <path d="M 858.153875 273.312 
L 864.105875 273.312 
L 864.105875 273.312 
L 858.153875 273.312 
z
" clip-path="url(#p9d32f8c835)" style="fill: #0173b2; fill-opacity: 0.75; stroke: #000000; stroke-width: 0.186583; stroke-linejoin: miter"/>
   </g>
   <g id="patch_137">
    <path d="M 864.105875 273.312 
L 870.057875 273.312 
L 870.057875 273.312 
L 864.105875 273.312 
z
" clip-path="url(#p9d32f8c835)" style="fill: #0173b2; fill-opacity: 0.75; stroke: #000000; stroke-width: 0.186583; stroke-linejoin: miter"/>
   </g>
   <g id="patch_138">
    <path d="M 870.057875 273.312 
L 876.009875 273.312 
L 876.009875 273.312 
L 870.057875 273.312 
z
" clip-path="url(#p9d32f8c835)" style="fill: #0173b2; fill-opacity: 0.75; stroke: #000000; stroke-width: 0.186583; stroke-linejoin: miter"/>
   </g>
   <g id="patch_139">
    <path d="M 876.009875 273.312 
L 881.961875 273.312 
L 881.961875 273.312 
L 876.009875 273.312 
z
" clip-path="url(#p9d32f8c835)" style="fill: #0173b2; fill-opacity: 0.75; stroke: #000000; stroke-width: 0.186583; stroke-linejoin: miter"/>
   </g>
   <g id="patch_140">
    <path d="M 881.961875 273.312 
L 887.913875 273.312 
L 887.913875 273.312 
L 881.961875 273.312 
z
" clip-path="url(#p9d32f8c835)" style="fill: #0173b2; fill-opacity: 0.75; stroke: #000000; stroke-width: 0.186583; stroke-linejoin: miter"/>
   </g>
   <g id="patch_141">
    <path d="M 887.913875 273.312 
L 893.865875 273.312 
L 893.865875 273.312 
L 887.913875 273.312 
z
" clip-path="url(#p9d32f8c835)" style="fill: #0173b2; fill-opacity: 0.75; stroke: #000000; stroke-width: 0.186583; stroke-linejoin: miter"/>
   </g>
   <g id="patch_142">
    <path d="M 893.865875 273.312 
L 899.817875 273.312 
L 899.817875 273.312 
L 893.865875 273.312 
z
" clip-path="url(#p9d32f8c835)" style="fill: #0173b2; fill-opacity: 0.75; stroke: #000000; stroke-width: 0.186583; stroke-linejoin: miter"/>
   </g>
   <g id="patch_143">
    <path d="M 899.817875 273.312 
L 905.769875 273.312 
L 905.769875 273.312 
L 899.817875 273.312 
z
" clip-path="url(#p9d32f8c835)" style="fill: #0173b2; fill-opacity: 0.75; stroke: #000000; stroke-width: 0.186583; stroke-linejoin: miter"/>
   </g>
   <g id="patch_144">
    <path d="M 905.769875 273.312 
L 911.721875 273.312 
L 911.721875 273.296798 
L 905.769875 273.296798 
z
" clip-path="url(#p9d32f8c835)" style="fill: #0173b2; fill-opacity: 0.75; stroke: #000000; stroke-width: 0.186583; stroke-linejoin: miter"/>
   </g>
   <g id="patch_145">
    <path d="M 911.721875 273.312 
L 917.673875 273.312 
L 917.673875 273.312 
L 911.721875 273.312 
z
" clip-path="url(#p9d32f8c835)" style="fill: #0173b2; fill-opacity: 0.75; stroke: #000000; stroke-width: 0.186583; stroke-linejoin: miter"/>
   </g>
   <g id="patch_146">
    <path d="M 917.673875 273.312 
L 923.625875 273.312 
L 923.625875 273.312 
L 917.673875 273.312 
z
" clip-path="url(#p9d32f8c835)" style="fill: #0173b2; fill-opacity: 0.75; stroke: #000000; stroke-width: 0.186583; stroke-linejoin: miter"/>
   </g>
   <g id="patch_147">
    <path d="M 923.625875 273.312 
L 929.577875 273.312 
L 929.577875 273.312 
L 923.625875 273.312 
z
" clip-path="url(#p9d32f8c835)" style="fill: #0173b2; fill-opacity: 0.75; stroke: #000000; stroke-width: 0.186583; stroke-linejoin: miter"/>
   </g>
   <g id="patch_148">
    <path d="M 929.577875 273.312 
L 935.529875 273.312 
L 935.529875 273.312 
L 929.577875 273.312 
z
" clip-path="url(#p9d32f8c835)" style="fill: #0173b2; fill-opacity: 0.75; stroke: #000000; stroke-width: 0.186583; stroke-linejoin: miter"/>
   </g>
   <g id="patch_149">
    <path d="M 935.529875 273.312 
L 941.481875 273.312 
L 941.481875 273.312 
L 935.529875 273.312 
z
" clip-path="url(#p9d32f8c835)" style="fill: #0173b2; fill-opacity: 0.75; stroke: #000000; stroke-width: 0.186583; stroke-linejoin: miter"/>
   </g>
   <g id="patch_150">
    <path d="M 941.481875 273.312 
L 947.433875 273.312 
L 947.433875 273.312 
L 941.481875 273.312 
z
" clip-path="url(#p9d32f8c835)" style="fill: #0173b2; fill-opacity: 0.75; stroke: #000000; stroke-width: 0.186583; stroke-linejoin: miter"/>
   </g>
   <g id="patch_151">
    <path d="M 947.433875 273.312 
L 953.385875 273.312 
L 953.385875 273.312 
L 947.433875 273.312 
z
" clip-path="url(#p9d32f8c835)" style="fill: #0173b2; fill-opacity: 0.75; stroke: #000000; stroke-width: 0.186583; stroke-linejoin: miter"/>
   </g>
   <g id="patch_152">
    <path d="M 953.385875 273.312 
L 959.337875 273.312 
L 959.337875 273.312 
L 953.385875 273.312 
z
" clip-path="url(#p9d32f8c835)" style="fill: #0173b2; fill-opacity: 0.75; stroke: #000000; stroke-width: 0.186583; stroke-linejoin: miter"/>
   </g>
   <g id="patch_153">
    <path d="M 959.337875 273.312 
L 965.289875 273.312 
L 965.289875 273.312 
L 959.337875 273.312 
z
" clip-path="url(#p9d32f8c835)" style="fill: #0173b2; fill-opacity: 0.75; stroke: #000000; stroke-width: 0.186583; stroke-linejoin: miter"/>
   </g>
   <g id="patch_154">
    <path d="M 965.289875 273.312 
L 971.241875 273.312 
L 971.241875 273.312 
L 965.289875 273.312 
z
" clip-path="url(#p9d32f8c835)" style="fill: #0173b2; fill-opacity: 0.75; stroke: #000000; stroke-width: 0.186583; stroke-linejoin: miter"/>
   </g>
   <g id="patch_155">
    <path d="M 971.241875 273.312 
L 977.193875 273.312 
L 977.193875 273.312 
L 971.241875 273.312 
z
" clip-path="url(#p9d32f8c835)" style="fill: #0173b2; fill-opacity: 0.75; stroke: #000000; stroke-width: 0.186583; stroke-linejoin: miter"/>
   </g>
   <g id="patch_156">
    <path d="M 977.193875 273.312 
L 983.145875 273.312 
L 983.145875 273.312 
L 977.193875 273.312 
z
" clip-path="url(#p9d32f8c835)" style="fill: #0173b2; fill-opacity: 0.75; stroke: #000000; stroke-width: 0.186583; stroke-linejoin: miter"/>
   </g>
   <g id="patch_157">
    <path d="M 983.145875 273.312 
L 989.097875 273.312 
L 989.097875 273.312 
L 983.145875 273.312 
z
" clip-path="url(#p9d32f8c835)" style="fill: #0173b2; fill-opacity: 0.75; stroke: #000000; stroke-width: 0.186583; stroke-linejoin: miter"/>
   </g>
   <g id="patch_158">
    <path d="M 989.097875 273.312 
L 995.049875 273.312 
L 995.049875 273.312 
L 989.097875 273.312 
z
" clip-path="url(#p9d32f8c835)" style="fill: #0173b2; fill-opacity: 0.75; stroke: #000000; stroke-width: 0.186583; stroke-linejoin: miter"/>
   </g>
   <g id="patch_159">
    <path d="M 995.049875 273.312 
L 1001.001875 273.312 
L 1001.001875 273.296798 
L 995.049875 273.296798 
z
" clip-path="url(#p9d32f8c835)" style="fill: #0173b2; fill-opacity: 0.75; stroke: #000000; stroke-width: 0.186583; stroke-linejoin: miter"/>
   </g>
   <g id="patch_160">
    <path d="M 1001.001875 273.312 
L 1006.953875 273.312 
L 1006.953875 273.312 
L 1001.001875 273.312 
z
" clip-path="url(#p9d32f8c835)" style="fill: #0173b2; fill-opacity: 0.75; stroke: #000000; stroke-width: 0.186583; stroke-linejoin: miter"/>
   </g>
   <g id="patch_161">
    <path d="M 1006.953875 273.312 
L 1012.905875 273.312 
L 1012.905875 273.312 
L 1006.953875 273.312 
z
" clip-path="url(#p9d32f8c835)" style="fill: #0173b2; fill-opacity: 0.75; stroke: #000000; stroke-width: 0.186583; stroke-linejoin: miter"/>
   </g>
   <g id="patch_162">
    <path d="M 1012.905875 273.312 
L 1018.857875 273.312 
L 1018.857875 273.312 
L 1012.905875 273.312 
z
" clip-path="url(#p9d32f8c835)" style="fill: #0173b2; fill-opacity: 0.75; stroke: #000000; stroke-width: 0.186583; stroke-linejoin: miter"/>
   </g>
   <g id="patch_163">
    <path d="M 1018.857875 273.312 
L 1024.809875 273.312 
L 1024.809875 273.312 
L 1018.857875 273.312 
z
" clip-path="url(#p9d32f8c835)" style="fill: #0173b2; fill-opacity: 0.75; stroke: #000000; stroke-width: 0.186583; stroke-linejoin: miter"/>
   </g>
   <g id="patch_164">
    <path d="M 1024.809875 273.312 
L 1030.761875 273.312 
L 1030.761875 273.312 
L 1024.809875 273.312 
z
" clip-path="url(#p9d32f8c835)" style="fill: #0173b2; fill-opacity: 0.75; stroke: #000000; stroke-width: 0.186583; stroke-linejoin: miter"/>
   </g>
   <g id="patch_165">
    <path d="M 1030.761875 273.312 
L 1036.713875 273.312 
L 1036.713875 273.312 
L 1030.761875 273.312 
z
" clip-path="url(#p9d32f8c835)" style="fill: #0173b2; fill-opacity: 0.75; stroke: #000000; stroke-width: 0.186583; stroke-linejoin: miter"/>
   </g>
   <g id="patch_166">
    <path d="M 1036.713875 273.312 
L 1042.665875 273.312 
L 1042.665875 273.312 
L 1036.713875 273.312 
z
" clip-path="url(#p9d32f8c835)" style="fill: #0173b2; fill-opacity: 0.75; stroke: #000000; stroke-width: 0.186583; stroke-linejoin: miter"/>
   </g>
   <g id="patch_167">
    <path d="M 1042.665875 273.312 
L 1048.617875 273.312 
L 1048.617875 273.312 
L 1042.665875 273.312 
z
" clip-path="url(#p9d32f8c835)" style="fill: #0173b2; fill-opacity: 0.75; stroke: #000000; stroke-width: 0.186583; stroke-linejoin: miter"/>
   </g>
   <g id="patch_168">
    <path d="M 1048.617875 273.312 
L 1054.569875 273.312 
L 1054.569875 273.312 
L 1048.617875 273.312 
z
" clip-path="url(#p9d32f8c835)" style="fill: #0173b2; fill-opacity: 0.75; stroke: #000000; stroke-width: 0.186583; stroke-linejoin: miter"/>
   </g>
   <g id="patch_169">
    <path d="M 1054.569875 273.312 
L 1060.521875 273.312 
L 1060.521875 273.296798 
L 1054.569875 273.296798 
z
" clip-path="url(#p9d32f8c835)" style="fill: #0173b2; fill-opacity: 0.75; stroke: #000000; stroke-width: 0.186583; stroke-linejoin: miter"/>
   </g>
   <g id="patch_170">
    <path d="M 1060.521875 273.312 
L 1066.473875 273.312 
L 1066.473875 273.312 
L 1060.521875 273.312 
z
" clip-path="url(#p9d32f8c835)" style="fill: #0173b2; fill-opacity: 0.75; stroke: #000000; stroke-width: 0.186583; stroke-linejoin: miter"/>
   </g>
   <g id="patch_171">
    <path d="M 1066.473875 273.312 
L 1072.425875 273.312 
L 1072.425875 273.312 
L 1066.473875 273.312 
z
" clip-path="url(#p9d32f8c835)" style="fill: #0173b2; fill-opacity: 0.75; stroke: #000000; stroke-width: 0.186583; stroke-linejoin: miter"/>
   </g>
   <g id="patch_172">
    <path d="M 1072.425875 273.312 
L 1078.377875 273.312 
L 1078.377875 273.312 
L 1072.425875 273.312 
z
" clip-path="url(#p9d32f8c835)" style="fill: #0173b2; fill-opacity: 0.75; stroke: #000000; stroke-width: 0.186583; stroke-linejoin: miter"/>
   </g>
   <g id="patch_173">
    <path d="M 1078.377875 273.312 
L 1084.329875 273.312 
L 1084.329875 273.312 
L 1078.377875 273.312 
z
" clip-path="url(#p9d32f8c835)" style="fill: #0173b2; fill-opacity: 0.75; stroke: #000000; stroke-width: 0.186583; stroke-linejoin: miter"/>
   </g>
   <g id="patch_174">
    <path d="M 1084.329875 273.312 
L 1090.281875 273.312 
L 1090.281875 273.312 
L 1084.329875 273.312 
z
" clip-path="url(#p9d32f8c835)" style="fill: #0173b2; fill-opacity: 0.75; stroke: #000000; stroke-width: 0.186583; stroke-linejoin: miter"/>
   </g>
   <g id="patch_175">
    <path d="M 1090.281875 273.312 
L 1096.233875 273.312 
L 1096.233875 273.312 
L 1090.281875 273.312 
z
" clip-path="url(#p9d32f8c835)" style="fill: #0173b2; fill-opacity: 0.75; stroke: #000000; stroke-width: 0.186583; stroke-linejoin: miter"/>
   </g>
   <g id="patch_176">
    <path d="M 1096.233875 273.312 
L 1102.185875 273.312 
L 1102.185875 273.296798 
L 1096.233875 273.296798 
z
" clip-path="url(#p9d32f8c835)" style="fill: #0173b2; fill-opacity: 0.75; stroke: #000000; stroke-width: 0.186583; stroke-linejoin: miter"/>
   </g>
   <g id="matplotlib.axis_1">
    <g id="xtick_1">
     <g id="line2d_1">
      <defs>
       <path id="mc89c4299f8" d="M 0 0 
L 0 3.5 
" style="stroke: #000000; stroke-width: 0.8"/>
      </defs>
      <g>
       <use xlink:href="#mc89c4299f8" x="63.561875" y="273.312" style="stroke: #000000; stroke-width: 0.8"/>
      </g>
     </g>
     <g id="text_1">
      <!-- 0 -->
      <g transform="translate(60.380625 287.910437) scale(0.1 -0.1)">
       <defs>
        <path id="DejaVuSans-30" d="M 2034 4250 
Q 1547 4250 1301 3770 
Q 1056 3291 1056 2328 
Q 1056 1369 1301 889 
Q 1547 409 2034 409 
Q 2525 409 2770 889 
Q 3016 1369 3016 2328 
Q 3016 3291 2770 3770 
Q 2525 4250 2034 4250 
z
M 2034 4750 
Q 2819 4750 3233 4129 
Q 3647 3509 3647 2328 
Q 3647 1150 3233 529 
Q 2819 -91 2034 -91 
Q 1250 -91 836 529 
Q 422 1150 422 2328 
Q 422 3509 836 4129 
Q 1250 4750 2034 4750 
z
" transform="scale(0.015625)"/>
       </defs>
       <use xlink:href="#DejaVuSans-30"/>
      </g>
     </g>
    </g>
    <g id="xtick_2">
     <g id="line2d_2">
      <g>
       <use xlink:href="#mc89c4299f8" x="123.081875" y="273.312" style="stroke: #000000; stroke-width: 0.8"/>
      </g>
     </g>
     <g id="text_2">
      <!-- 10 -->
      <g transform="translate(116.719375 287.910437) scale(0.1 -0.1)">
       <defs>
        <path id="DejaVuSans-31" d="M 794 531 
L 1825 531 
L 1825 4091 
L 703 3866 
L 703 4441 
L 1819 4666 
L 2450 4666 
L 2450 531 
L 3481 531 
L 3481 0 
L 794 0 
L 794 531 
z
" transform="scale(0.015625)"/>
       </defs>
       <use xlink:href="#DejaVuSans-31"/>
       <use xlink:href="#DejaVuSans-30" transform="translate(63.623047 0)"/>
      </g>
     </g>
    </g>
    <g id="xtick_3">
     <g id="line2d_3">
      <g>
       <use xlink:href="#mc89c4299f8" x="182.601875" y="273.312" style="stroke: #000000; stroke-width: 0.8"/>
      </g>
     </g>
     <g id="text_3">
      <!-- 20 -->
      <g transform="translate(176.239375 287.910437) scale(0.1 -0.1)">
       <defs>
        <path id="DejaVuSans-32" d="M 1228 531 
L 3431 531 
L 3431 0 
L 469 0 
L 469 531 
Q 828 903 1448 1529 
Q 2069 2156 2228 2338 
Q 2531 2678 2651 2914 
Q 2772 3150 2772 3378 
Q 2772 3750 2511 3984 
Q 2250 4219 1831 4219 
Q 1534 4219 1204 4116 
Q 875 4013 500 3803 
L 500 4441 
Q 881 4594 1212 4672 
Q 1544 4750 1819 4750 
Q 2544 4750 2975 4387 
Q 3406 4025 3406 3419 
Q 3406 3131 3298 2873 
Q 3191 2616 2906 2266 
Q 2828 2175 2409 1742 
Q 1991 1309 1228 531 
z
" transform="scale(0.015625)"/>
       </defs>
       <use xlink:href="#DejaVuSans-32"/>
       <use xlink:href="#DejaVuSans-30" transform="translate(63.623047 0)"/>
      </g>
     </g>
    </g>
    <g id="xtick_4">
     <g id="line2d_4">
      <g>
       <use xlink:href="#mc89c4299f8" x="242.121875" y="273.312" style="stroke: #000000; stroke-width: 0.8"/>
      </g>
     </g>
     <g id="text_4">
      <!-- 30 -->
      <g transform="translate(235.759375 287.910437) scale(0.1 -0.1)">
       <defs>
        <path id="DejaVuSans-33" d="M 2597 2516 
Q 3050 2419 3304 2112 
Q 3559 1806 3559 1356 
Q 3559 666 3084 287 
Q 2609 -91 1734 -91 
Q 1441 -91 1130 -33 
Q 819 25 488 141 
L 488 750 
Q 750 597 1062 519 
Q 1375 441 1716 441 
Q 2309 441 2620 675 
Q 2931 909 2931 1356 
Q 2931 1769 2642 2001 
Q 2353 2234 1838 2234 
L 1294 2234 
L 1294 2753 
L 1863 2753 
Q 2328 2753 2575 2939 
Q 2822 3125 2822 3475 
Q 2822 3834 2567 4026 
Q 2313 4219 1838 4219 
Q 1578 4219 1281 4162 
Q 984 4106 628 3988 
L 628 4550 
Q 988 4650 1302 4700 
Q 1616 4750 1894 4750 
Q 2613 4750 3031 4423 
Q 3450 4097 3450 3541 
Q 3450 3153 3228 2886 
Q 3006 2619 2597 2516 
z
" transform="scale(0.015625)"/>
       </defs>
       <use xlink:href="#DejaVuSans-33"/>
       <use xlink:href="#DejaVuSans-30" transform="translate(63.623047 0)"/>
      </g>
     </g>
    </g>
    <g id="xtick_5">
     <g id="line2d_5">
      <g>
       <use xlink:href="#mc89c4299f8" x="301.641875" y="273.312" style="stroke: #000000; stroke-width: 0.8"/>
      </g>
     </g>
     <g id="text_5">
      <!-- 40 -->
      <g transform="translate(295.279375 287.910437) scale(0.1 -0.1)">
       <defs>
        <path id="DejaVuSans-34" d="M 2419 4116 
L 825 1625 
L 2419 1625 
L 2419 4116 
z
M 2253 4666 
L 3047 4666 
L 3047 1625 
L 3713 1625 
L 3713 1100 
L 3047 1100 
L 3047 0 
L 2419 0 
L 2419 1100 
L 313 1100 
L 313 1709 
L 2253 4666 
z
" transform="scale(0.015625)"/>
       </defs>
       <use xlink:href="#DejaVuSans-34"/>
       <use xlink:href="#DejaVuSans-30" transform="translate(63.623047 0)"/>
      </g>
     </g>
    </g>
    <g id="xtick_6">
     <g id="line2d_6">
      <g>
       <use xlink:href="#mc89c4299f8" x="361.161875" y="273.312" style="stroke: #000000; stroke-width: 0.8"/>
      </g>
     </g>
     <g id="text_6">
      <!-- 50 -->
      <g transform="translate(354.799375 287.910437) scale(0.1 -0.1)">
       <defs>
        <path id="DejaVuSans-35" d="M 691 4666 
L 3169 4666 
L 3169 4134 
L 1269 4134 
L 1269 2991 
Q 1406 3038 1543 3061 
Q 1681 3084 1819 3084 
Q 2600 3084 3056 2656 
Q 3513 2228 3513 1497 
Q 3513 744 3044 326 
Q 2575 -91 1722 -91 
Q 1428 -91 1123 -41 
Q 819 9 494 109 
L 494 744 
Q 775 591 1075 516 
Q 1375 441 1709 441 
Q 2250 441 2565 725 
Q 2881 1009 2881 1497 
Q 2881 1984 2565 2268 
Q 2250 2553 1709 2553 
Q 1456 2553 1204 2497 
Q 953 2441 691 2322 
L 691 4666 
z
" transform="scale(0.015625)"/>
       </defs>
       <use xlink:href="#DejaVuSans-35"/>
       <use xlink:href="#DejaVuSans-30" transform="translate(63.623047 0)"/>
      </g>
     </g>
    </g>
    <g id="xtick_7">
     <g id="line2d_7">
      <g>
       <use xlink:href="#mc89c4299f8" x="420.681875" y="273.312" style="stroke: #000000; stroke-width: 0.8"/>
      </g>
     </g>
     <g id="text_7">
      <!-- 60 -->
      <g transform="translate(414.319375 287.910437) scale(0.1 -0.1)">
       <defs>
        <path id="DejaVuSans-36" d="M 2113 2584 
Q 1688 2584 1439 2293 
Q 1191 2003 1191 1497 
Q 1191 994 1439 701 
Q 1688 409 2113 409 
Q 2538 409 2786 701 
Q 3034 994 3034 1497 
Q 3034 2003 2786 2293 
Q 2538 2584 2113 2584 
z
M 3366 4563 
L 3366 3988 
Q 3128 4100 2886 4159 
Q 2644 4219 2406 4219 
Q 1781 4219 1451 3797 
Q 1122 3375 1075 2522 
Q 1259 2794 1537 2939 
Q 1816 3084 2150 3084 
Q 2853 3084 3261 2657 
Q 3669 2231 3669 1497 
Q 3669 778 3244 343 
Q 2819 -91 2113 -91 
Q 1303 -91 875 529 
Q 447 1150 447 2328 
Q 447 3434 972 4092 
Q 1497 4750 2381 4750 
Q 2619 4750 2861 4703 
Q 3103 4656 3366 4563 
z
" transform="scale(0.015625)"/>
       </defs>
       <use xlink:href="#DejaVuSans-36"/>
       <use xlink:href="#DejaVuSans-30" transform="translate(63.623047 0)"/>
      </g>
     </g>
    </g>
    <g id="text_8">
     <!-- Number of Studies -->
     <g transform="translate(176.838125 304.627937) scale(0.14 -0.14)">
      <defs>
       <path id="DejaVuSans-4e" d="M 628 4666 
L 1478 4666 
L 3547 763 
L 3547 4666 
L 4159 4666 
L 4159 0 
L 3309 0 
L 1241 3903 
L 1241 0 
L 628 0 
L 628 4666 
z
" transform="scale(0.015625)"/>
       <path id="DejaVuSans-75" d="M 544 1381 
L 544 3500 
L 1119 3500 
L 1119 1403 
Q 1119 906 1312 657 
Q 1506 409 1894 409 
Q 2359 409 2629 706 
Q 2900 1003 2900 1516 
L 2900 3500 
L 3475 3500 
L 3475 0 
L 2900 0 
L 2900 538 
Q 2691 219 2414 64 
Q 2138 -91 1772 -91 
Q 1169 -91 856 284 
Q 544 659 544 1381 
z
M 1991 3584 
L 1991 3584 
z
" transform="scale(0.015625)"/>
       <path id="DejaVuSans-6d" d="M 3328 2828 
Q 3544 3216 3844 3400 
Q 4144 3584 4550 3584 
Q 5097 3584 5394 3201 
Q 5691 2819 5691 2113 
L 5691 0 
L 5113 0 
L 5113 2094 
Q 5113 2597 4934 2840 
Q 4756 3084 4391 3084 
Q 3944 3084 3684 2787 
Q 3425 2491 3425 1978 
L 3425 0 
L 2847 0 
L 2847 2094 
Q 2847 2600 2669 2842 
Q 2491 3084 2119 3084 
Q 1678 3084 1418 2786 
Q 1159 2488 1159 1978 
L 1159 0 
L 581 0 
L 581 3500 
L 1159 3500 
L 1159 2956 
Q 1356 3278 1631 3431 
Q 1906 3584 2284 3584 
Q 2666 3584 2933 3390 
Q 3200 3197 3328 2828 
z
" transform="scale(0.015625)"/>
       <path id="DejaVuSans-62" d="M 3116 1747 
Q 3116 2381 2855 2742 
Q 2594 3103 2138 3103 
Q 1681 3103 1420 2742 
Q 1159 2381 1159 1747 
Q 1159 1113 1420 752 
Q 1681 391 2138 391 
Q 2594 391 2855 752 
Q 3116 1113 3116 1747 
z
M 1159 2969 
Q 1341 3281 1617 3432 
Q 1894 3584 2278 3584 
Q 2916 3584 3314 3078 
Q 3713 2572 3713 1747 
Q 3713 922 3314 415 
Q 2916 -91 2278 -91 
Q 1894 -91 1617 61 
Q 1341 213 1159 525 
L 1159 0 
L 581 0 
L 581 4863 
L 1159 4863 
L 1159 2969 
z
" transform="scale(0.015625)"/>
       <path id="DejaVuSans-65" d="M 3597 1894 
L 3597 1613 
L 953 1613 
Q 991 1019 1311 708 
Q 1631 397 2203 397 
Q 2534 397 2845 478 
Q 3156 559 3463 722 
L 3463 178 
Q 3153 47 2828 -22 
Q 2503 -91 2169 -91 
Q 1331 -91 842 396 
Q 353 884 353 1716 
Q 353 2575 817 3079 
Q 1281 3584 2069 3584 
Q 2775 3584 3186 3129 
Q 3597 2675 3597 1894 
z
M 3022 2063 
Q 3016 2534 2758 2815 
Q 2500 3097 2075 3097 
Q 1594 3097 1305 2825 
Q 1016 2553 972 2059 
L 3022 2063 
z
" transform="scale(0.015625)"/>
       <path id="DejaVuSans-72" d="M 2631 2963 
Q 2534 3019 2420 3045 
Q 2306 3072 2169 3072 
Q 1681 3072 1420 2755 
Q 1159 2438 1159 1844 
L 1159 0 
L 581 0 
L 581 3500 
L 1159 3500 
L 1159 2956 
Q 1341 3275 1631 3429 
Q 1922 3584 2338 3584 
Q 2397 3584 2469 3576 
Q 2541 3569 2628 3553 
L 2631 2963 
z
" transform="scale(0.015625)"/>
       <path id="DejaVuSans-20" transform="scale(0.015625)"/>
       <path id="DejaVuSans-6f" d="M 1959 3097 
Q 1497 3097 1228 2736 
Q 959 2375 959 1747 
Q 959 1119 1226 758 
Q 1494 397 1959 397 
Q 2419 397 2687 759 
Q 2956 1122 2956 1747 
Q 2956 2369 2687 2733 
Q 2419 3097 1959 3097 
z
M 1959 3584 
Q 2709 3584 3137 3096 
Q 3566 2609 3566 1747 
Q 3566 888 3137 398 
Q 2709 -91 1959 -91 
Q 1206 -91 779 398 
Q 353 888 353 1747 
Q 353 2609 779 3096 
Q 1206 3584 1959 3584 
z
" transform="scale(0.015625)"/>
       <path id="DejaVuSans-66" d="M 2375 4863 
L 2375 4384 
L 1825 4384 
Q 1516 4384 1395 4259 
Q 1275 4134 1275 3809 
L 1275 3500 
L 2222 3500 
L 2222 3053 
L 1275 3053 
L 1275 0 
L 697 0 
L 697 3053 
L 147 3053 
L 147 3500 
L 697 3500 
L 697 3744 
Q 697 4328 969 4595 
Q 1241 4863 1831 4863 
L 2375 4863 
z
" transform="scale(0.015625)"/>
       <path id="DejaVuSans-53" d="M 3425 4513 
L 3425 3897 
Q 3066 4069 2747 4153 
Q 2428 4238 2131 4238 
Q 1616 4238 1336 4038 
Q 1056 3838 1056 3469 
Q 1056 3159 1242 3001 
Q 1428 2844 1947 2747 
L 2328 2669 
Q 3034 2534 3370 2195 
Q 3706 1856 3706 1288 
Q 3706 609 3251 259 
Q 2797 -91 1919 -91 
Q 1588 -91 1214 -16 
Q 841 59 441 206 
L 441 856 
Q 825 641 1194 531 
Q 1563 422 1919 422 
Q 2459 422 2753 634 
Q 3047 847 3047 1241 
Q 3047 1584 2836 1778 
Q 2625 1972 2144 2069 
L 1759 2144 
Q 1053 2284 737 2584 
Q 422 2884 422 3419 
Q 422 4038 858 4394 
Q 1294 4750 2059 4750 
Q 2388 4750 2728 4690 
Q 3069 4631 3425 4513 
z
" transform="scale(0.015625)"/>
       <path id="DejaVuSans-74" d="M 1172 4494 
L 1172 3500 
L 2356 3500 
L 2356 3053 
L 1172 3053 
L 1172 1153 
Q 1172 725 1289 603 
Q 1406 481 1766 481 
L 2356 481 
L 2356 0 
L 1766 0 
Q 1100 0 847 248 
Q 594 497 594 1153 
L 594 3053 
L 172 3053 
L 172 3500 
L 594 3500 
L 594 4494 
L 1172 4494 
z
" transform="scale(0.015625)"/>
       <path id="DejaVuSans-64" d="M 2906 2969 
L 2906 4863 
L 3481 4863 
L 3481 0 
L 2906 0 
L 2906 525 
Q 2725 213 2448 61 
Q 2172 -91 1784 -91 
Q 1150 -91 751 415 
Q 353 922 353 1747 
Q 353 2572 751 3078 
Q 1150 3584 1784 3584 
Q 2172 3584 2448 3432 
Q 2725 3281 2906 2969 
z
M 947 1747 
Q 947 1113 1208 752 
Q 1469 391 1925 391 
Q 2381 391 2643 752 
Q 2906 1113 2906 1747 
Q 2906 2381 2643 2742 
Q 2381 3103 1925 3103 
Q 1469 3103 1208 2742 
Q 947 2381 947 1747 
z
" transform="scale(0.015625)"/>
       <path id="DejaVuSans-69" d="M 603 3500 
L 1178 3500 
L 1178 0 
L 603 0 
L 603 3500 
z
M 603 4863 
L 1178 4863 
L 1178 4134 
L 603 4134 
L 603 4863 
z
" transform="scale(0.015625)"/>
       <path id="DejaVuSans-73" d="M 2834 3397 
L 2834 2853 
Q 2591 2978 2328 3040 
Q 2066 3103 1784 3103 
Q 1356 3103 1142 2972 
Q 928 2841 928 2578 
Q 928 2378 1081 2264 
Q 1234 2150 1697 2047 
L 1894 2003 
Q 2506 1872 2764 1633 
Q 3022 1394 3022 966 
Q 3022 478 2636 193 
Q 2250 -91 1575 -91 
Q 1294 -91 989 -36 
Q 684 19 347 128 
L 347 722 
Q 666 556 975 473 
Q 1284 391 1588 391 
Q 1994 391 2212 530 
Q 2431 669 2431 922 
Q 2431 1156 2273 1281 
Q 2116 1406 1581 1522 
L 1381 1569 
Q 847 1681 609 1914 
Q 372 2147 372 2553 
Q 372 3047 722 3315 
Q 1072 3584 1716 3584 
Q 2034 3584 2315 3537 
Q 2597 3491 2834 3397 
z
" transform="scale(0.015625)"/>
      </defs>
      <use xlink:href="#DejaVuSans-4e"/>
      <use xlink:href="#DejaVuSans-75" transform="translate(74.804688 0)"/>
      <use xlink:href="#DejaVuSans-6d" transform="translate(138.183594 0)"/>
      <use xlink:href="#DejaVuSans-62" transform="translate(235.595703 0)"/>
      <use xlink:href="#DejaVuSans-65" transform="translate(299.072266 0)"/>
      <use xlink:href="#DejaVuSans-72" transform="translate(360.595703 0)"/>
      <use xlink:href="#DejaVuSans-20" transform="translate(401.708984 0)"/>
      <use xlink:href="#DejaVuSans-6f" transform="translate(433.496094 0)"/>
      <use xlink:href="#DejaVuSans-66" transform="translate(494.677734 0)"/>
      <use xlink:href="#DejaVuSans-20" transform="translate(529.882812 0)"/>
      <use xlink:href="#DejaVuSans-53" transform="translate(561.669922 0)"/>
      <use xlink:href="#DejaVuSans-74" transform="translate(625.146484 0)"/>
      <use xlink:href="#DejaVuSans-75" transform="translate(664.355469 0)"/>
      <use xlink:href="#DejaVuSans-64" transform="translate(727.734375 0)"/>
      <use xlink:href="#DejaVuSans-69" transform="translate(791.210938 0)"/>
      <use xlink:href="#DejaVuSans-65" transform="translate(818.994141 0)"/>
      <use xlink:href="#DejaVuSans-73" transform="translate(880.517578 0)"/>
     </g>
    </g>
   </g>
   <g id="matplotlib.axis_2">
    <g id="ytick_1">
     <g id="line2d_8">
      <defs>
       <path id="m18d0c68689" d="M 0 0 
L -3.5 0 
" style="stroke: #000000; stroke-width: 0.8"/>
      </defs>
      <g>
       <use xlink:href="#m18d0c68689" x="63.561875" y="273.312" style="stroke: #000000; stroke-width: 0.8"/>
      </g>
     </g>
     <g id="text_9">
      <!-- 0 -->
      <g transform="translate(50.199375 277.111219) scale(0.1 -0.1)">
       <use xlink:href="#DejaVuSans-30"/>
      </g>
     </g>
    </g>
    <g id="ytick_2">
     <g id="line2d_9">
      <g>
       <use xlink:href="#m18d0c68689" x="63.561875" y="242.908929" style="stroke: #000000; stroke-width: 0.8"/>
      </g>
     </g>
     <g id="text_10">
      <!-- 2000 -->
      <g transform="translate(31.111875 246.708148) scale(0.1 -0.1)">
       <use xlink:href="#DejaVuSans-32"/>
       <use xlink:href="#DejaVuSans-30" transform="translate(63.623047 0)"/>
       <use xlink:href="#DejaVuSans-30" transform="translate(127.246094 0)"/>
       <use xlink:href="#DejaVuSans-30" transform="translate(190.869141 0)"/>
      </g>
     </g>
    </g>
    <g id="ytick_3">
     <g id="line2d_10">
      <g>
       <use xlink:href="#m18d0c68689" x="63.561875" y="212.505858" style="stroke: #000000; stroke-width: 0.8"/>
      </g>
     </g>
     <g id="text_11">
      <!-- 4000 -->
      <g transform="translate(31.111875 216.305077) scale(0.1 -0.1)">
       <use xlink:href="#DejaVuSans-34"/>
       <use xlink:href="#DejaVuSans-30" transform="translate(63.623047 0)"/>
       <use xlink:href="#DejaVuSans-30" transform="translate(127.246094 0)"/>
       <use xlink:href="#DejaVuSans-30" transform="translate(190.869141 0)"/>
      </g>
     </g>
    </g>
    <g id="ytick_4">
     <g id="line2d_11">
      <g>
       <use xlink:href="#m18d0c68689" x="63.561875" y="182.102787" style="stroke: #000000; stroke-width: 0.8"/>
      </g>
     </g>
     <g id="text_12">
      <!-- 6000 -->
      <g transform="translate(31.111875 185.902006) scale(0.1 -0.1)">
       <use xlink:href="#DejaVuSans-36"/>
       <use xlink:href="#DejaVuSans-30" transform="translate(63.623047 0)"/>
       <use xlink:href="#DejaVuSans-30" transform="translate(127.246094 0)"/>
       <use xlink:href="#DejaVuSans-30" transform="translate(190.869141 0)"/>
      </g>
     </g>
    </g>
    <g id="ytick_5">
     <g id="line2d_12">
      <g>
       <use xlink:href="#m18d0c68689" x="63.561875" y="151.699716" style="stroke: #000000; stroke-width: 0.8"/>
      </g>
     </g>
     <g id="text_13">
      <!-- 8000 -->
      <g transform="translate(31.111875 155.498935) scale(0.1 -0.1)">
       <defs>
        <path id="DejaVuSans-38" d="M 2034 2216 
Q 1584 2216 1326 1975 
Q 1069 1734 1069 1313 
Q 1069 891 1326 650 
Q 1584 409 2034 409 
Q 2484 409 2743 651 
Q 3003 894 3003 1313 
Q 3003 1734 2745 1975 
Q 2488 2216 2034 2216 
z
M 1403 2484 
Q 997 2584 770 2862 
Q 544 3141 544 3541 
Q 544 4100 942 4425 
Q 1341 4750 2034 4750 
Q 2731 4750 3128 4425 
Q 3525 4100 3525 3541 
Q 3525 3141 3298 2862 
Q 3072 2584 2669 2484 
Q 3125 2378 3379 2068 
Q 3634 1759 3634 1313 
Q 3634 634 3220 271 
Q 2806 -91 2034 -91 
Q 1263 -91 848 271 
Q 434 634 434 1313 
Q 434 1759 690 2068 
Q 947 2378 1403 2484 
z
M 1172 3481 
Q 1172 3119 1398 2916 
Q 1625 2713 2034 2713 
Q 2441 2713 2670 2916 
Q 2900 3119 2900 3481 
Q 2900 3844 2670 4047 
Q 2441 4250 2034 4250 
Q 1625 4250 1398 4047 
Q 1172 3844 1172 3481 
z
" transform="scale(0.015625)"/>
       </defs>
       <use xlink:href="#DejaVuSans-38"/>
       <use xlink:href="#DejaVuSans-30" transform="translate(63.623047 0)"/>
       <use xlink:href="#DejaVuSans-30" transform="translate(127.246094 0)"/>
       <use xlink:href="#DejaVuSans-30" transform="translate(190.869141 0)"/>
      </g>
     </g>
    </g>
    <g id="ytick_6">
     <g id="line2d_13">
      <g>
       <use xlink:href="#m18d0c68689" x="63.561875" y="121.296645" style="stroke: #000000; stroke-width: 0.8"/>
      </g>
     </g>
     <g id="text_14">
      <!-- 10000 -->
      <g transform="translate(24.749375 125.095864) scale(0.1 -0.1)">
       <use xlink:href="#DejaVuSans-31"/>
       <use xlink:href="#DejaVuSans-30" transform="translate(63.623047 0)"/>
       <use xlink:href="#DejaVuSans-30" transform="translate(127.246094 0)"/>
       <use xlink:href="#DejaVuSans-30" transform="translate(190.869141 0)"/>
       <use xlink:href="#DejaVuSans-30" transform="translate(254.492188 0)"/>
      </g>
     </g>
    </g>
    <g id="ytick_7">
     <g id="line2d_14">
      <g>
       <use xlink:href="#m18d0c68689" x="63.561875" y="90.893574" style="stroke: #000000; stroke-width: 0.8"/>
      </g>
     </g>
     <g id="text_15">
      <!-- 12000 -->
      <g transform="translate(24.749375 94.692793) scale(0.1 -0.1)">
       <use xlink:href="#DejaVuSans-31"/>
       <use xlink:href="#DejaVuSans-32" transform="translate(63.623047 0)"/>
       <use xlink:href="#DejaVuSans-30" transform="translate(127.246094 0)"/>
       <use xlink:href="#DejaVuSans-30" transform="translate(190.869141 0)"/>
       <use xlink:href="#DejaVuSans-30" transform="translate(254.492188 0)"/>
      </g>
     </g>
    </g>
    <g id="ytick_8">
     <g id="line2d_15">
      <g>
       <use xlink:href="#m18d0c68689" x="63.561875" y="60.490503" style="stroke: #000000; stroke-width: 0.8"/>
      </g>
     </g>
     <g id="text_16">
      <!-- 14000 -->
      <g transform="translate(24.749375 64.289722) scale(0.1 -0.1)">
       <use xlink:href="#DejaVuSans-31"/>
       <use xlink:href="#DejaVuSans-34" transform="translate(63.623047 0)"/>
       <use xlink:href="#DejaVuSans-30" transform="translate(127.246094 0)"/>
       <use xlink:href="#DejaVuSans-30" transform="translate(190.869141 0)"/>
       <use xlink:href="#DejaVuSans-30" transform="translate(254.492188 0)"/>
      </g>
     </g>
    </g>
    <g id="ytick_9">
     <g id="line2d_16">
      <g>
       <use xlink:href="#m18d0c68689" x="63.561875" y="30.087432" style="stroke: #000000; stroke-width: 0.8"/>
      </g>
     </g>
     <g id="text_17">
      <!-- 16000 -->
      <g transform="translate(24.749375 33.886651) scale(0.1 -0.1)">
       <use xlink:href="#DejaVuSans-31"/>
       <use xlink:href="#DejaVuSans-36" transform="translate(63.623047 0)"/>
       <use xlink:href="#DejaVuSans-30" transform="translate(127.246094 0)"/>
       <use xlink:href="#DejaVuSans-30" transform="translate(190.869141 0)"/>
       <use xlink:href="#DejaVuSans-30" transform="translate(254.492188 0)"/>
      </g>
     </g>
    </g>
    <g id="text_18">
     <!-- Number of Patients -->
     <g transform="translate(17.837813 207.591625) rotate(-90) scale(0.14 -0.14)">
      <defs>
       <path id="DejaVuSans-50" d="M 1259 4147 
L 1259 2394 
L 2053 2394 
Q 2494 2394 2734 2622 
Q 2975 2850 2975 3272 
Q 2975 3691 2734 3919 
Q 2494 4147 2053 4147 
L 1259 4147 
z
M 628 4666 
L 2053 4666 
Q 2838 4666 3239 4311 
Q 3641 3956 3641 3272 
Q 3641 2581 3239 2228 
Q 2838 1875 2053 1875 
L 1259 1875 
L 1259 0 
L 628 0 
L 628 4666 
z
" transform="scale(0.015625)"/>
       <path id="DejaVuSans-61" d="M 2194 1759 
Q 1497 1759 1228 1600 
Q 959 1441 959 1056 
Q 959 750 1161 570 
Q 1363 391 1709 391 
Q 2188 391 2477 730 
Q 2766 1069 2766 1631 
L 2766 1759 
L 2194 1759 
z
M 3341 1997 
L 3341 0 
L 2766 0 
L 2766 531 
Q 2569 213 2275 61 
Q 1981 -91 1556 -91 
Q 1019 -91 701 211 
Q 384 513 384 1019 
Q 384 1609 779 1909 
Q 1175 2209 1959 2209 
L 2766 2209 
L 2766 2266 
Q 2766 2663 2505 2880 
Q 2244 3097 1772 3097 
Q 1472 3097 1187 3025 
Q 903 2953 641 2809 
L 641 3341 
Q 956 3463 1253 3523 
Q 1550 3584 1831 3584 
Q 2591 3584 2966 3190 
Q 3341 2797 3341 1997 
z
" transform="scale(0.015625)"/>
       <path id="DejaVuSans-6e" d="M 3513 2113 
L 3513 0 
L 2938 0 
L 2938 2094 
Q 2938 2591 2744 2837 
Q 2550 3084 2163 3084 
Q 1697 3084 1428 2787 
Q 1159 2491 1159 1978 
L 1159 0 
L 581 0 
L 581 3500 
L 1159 3500 
L 1159 2956 
Q 1366 3272 1645 3428 
Q 1925 3584 2291 3584 
Q 2894 3584 3203 3211 
Q 3513 2838 3513 2113 
z
" transform="scale(0.015625)"/>
      </defs>
      <use xlink:href="#DejaVuSans-4e"/>
      <use xlink:href="#DejaVuSans-75" transform="translate(74.804688 0)"/>
      <use xlink:href="#DejaVuSans-6d" transform="translate(138.183594 0)"/>
      <use xlink:href="#DejaVuSans-62" transform="translate(235.595703 0)"/>
      <use xlink:href="#DejaVuSans-65" transform="translate(299.072266 0)"/>
      <use xlink:href="#DejaVuSans-72" transform="translate(360.595703 0)"/>
      <use xlink:href="#DejaVuSans-20" transform="translate(401.708984 0)"/>
      <use xlink:href="#DejaVuSans-6f" transform="translate(433.496094 0)"/>
      <use xlink:href="#DejaVuSans-66" transform="translate(494.677734 0)"/>
      <use xlink:href="#DejaVuSans-20" transform="translate(529.882812 0)"/>
      <use xlink:href="#DejaVuSans-50" transform="translate(561.669922 0)"/>
      <use xlink:href="#DejaVuSans-61" transform="translate(617.472656 0)"/>
      <use xlink:href="#DejaVuSans-74" transform="translate(678.751953 0)"/>
      <use xlink:href="#DejaVuSans-69" transform="translate(717.960938 0)"/>
      <use xlink:href="#DejaVuSans-65" transform="translate(745.744141 0)"/>
      <use xlink:href="#DejaVuSans-6e" transform="translate(807.267578 0)"/>
      <use xlink:href="#DejaVuSans-74" transform="translate(870.646484 0)"/>
      <use xlink:href="#DejaVuSans-73" transform="translate(909.855469 0)"/>
     </g>
    </g>
   </g>
   <g id="patch_177">
    <path d="M 63.561875 273.312 
L 63.561875 7.2 
" style="fill: none; stroke: #000000; stroke-width: 0.8; stroke-linejoin: miter; stroke-linecap: square"/>
   </g>
   <g id="patch_178">
    <path d="M 63.561875 273.312 
L 420.681875 273.312 
" style="fill: none; stroke: #000000; stroke-width: 0.8; stroke-linejoin: miter; stroke-linecap: square"/>
   </g>
  </g>
 </g>
 <defs>
  <clipPath id="p9d32f8c835">
   <rect x="63.561875" y="7.2" width="357.12" height="266.112"/>
  </clipPath>
 </defs>
</svg>
